# xmcd
#
# Track frame offsets: 
#        150
#        21137
#        36721
#        53354
#        66657
#        80207
#        115245
#        128498
#        144503
#        157876
#        173089
#        189353
#        209793
#        224714
#        238504
#
# Disc length: 3451 seconds
#
# Revision: 2
# Processed by: cddbd v1.5.2PL0 Copyright (c) Steve Scherf et al.
# Submitted via: ExactAudioCopy v1.1
#
DISCID=e00d790f
DTITLE=Various Artist - Simply Cuba #1 Cuba Romantica
DYEAR=2007
DGENRE=Salsa
TTITLE0=Omara Portuondo - Omara Portuondo - Besame Mucho
TTITLE1=Rubén Gonzales - Rubén Gonzáles - La Gloria Eres Tu
TTITLE2=Compay Segundo - Compay Secundo - Como La Avelleneda
TTITLE3=Beny Moré - Beny Moré - Como Fue
TTITLE4=Ibrahim Ferrer - Ibrahim Ferrer - Una Fuerza Immensa
TTITLE5=Orquesta Aliamén - Orquesta Aliamén - Oye Guajira Soy Del Camp
TTITLE5=o
TTITLE6=Orquesta América - Orquesta América - Me La Dijo Adela
TTITLE7=Conjunto Bolero - Conjunto Bolero - Mulence Y Yo
TTITLE8=Rubén Gonzales - Rubén Gonzáles - La Basura
TTITLE9=Omara Portuondo - Omara Portuondo - Veinte Anos
TTITLE10=Compay Segundo - Compay Segundo - Juramento
TTITLE11=Ibrahim Ferrer - Ibrahim Ferrer - Compositor Confundido
TTITLE12=Beny Moré - Beny Moré - Encantado De La Vida
TTITLE13=Rubén Gonzáles - Rubén Gonzáles - Todo Aquel Ayer
TTITLE14=Omara Portuondo - Omara Portuondo - Vuela Pena
EXTD=YEAR: 2007
EXTT0=Ninguno
EXTT1=Ninguno
EXTT2=Ninguno
EXTT3=ninguno
EXTT4=Ninguno
EXTT5=Ninguno
EXTT6=Ninguno
EXTT7=Ninguno
EXTT8=Ninguno
EXTT9=Ninguno
EXTT10=Ninguno
EXTT11=Ninguno
EXTT12=Ninguno
EXTT13=Ninguno
EXTT14=Ninguno
PLAYORDER=
